<?xml version="1.0"?>
<svg xmlns="http://www.w3.org/2000/svg" version="1.1" viewBox="-5 -5 110 100">
<path fill="#ffffff" d="m 83.118231,82.767594 -10.197498,-6.404503 -20.589684,-0.0046 c -19.153961,-0.004 -20.635077,-0.04189 -21.241307,-0.539089 -0.632013,-0.518369 -0.649109,-0.718592 -0.566388,-6.642787 l 0.08524,-6.108303 5.935914,-0.174795 0,7.352056 37.831212,0 6.806544,4.25553 c 3.743628,2.34057 6.806545,4.121847 6.806545,3.958373 0,-0.396526 -0.571424,-5.966256 -0.740949,-7.221325 l -0.133985,-0.992578 6.658638,0 0,-46.423104 -19.786237,0 0,-5.80288 12.571894,0 c 9.372256,0 12.664854,0.09328 12.937164,0.366481 0.278893,0.279822 0.365253,7.107677 0.365253,28.869291 l 0,28.502814 -0.780793,0.297853 c -0.42941,0.163814 -1.79923,0.297848 -3.043989,0.297848 -1.612016,0 -2.260861,0.109826 -2.255045,0.381808 0.0041,0.209979 0.264143,2.85563 0.576976,5.879257 0.584008,5.644368 0.510579,6.57093 -0.519777,6.56179 -0.287059,-0.0025 -5.110853,-2.886634 -10.719521,-6.40912 z M 5.249539,70.657753 C 5.0457276,70.273425 5.1318397,68.335385 5.5188012,64.595346 5.8316417,61.571719 6.0912653,58.926067 6.0957793,58.71609 c 0.00594,-0.27451 -0.6813991,-0.381804 -2.4470547,-0.381804 -4.0972571,0 -3.6328662,3.722184 -3.6328662,-29.116805 0,-21.7474208 0.086372,-28.5711776 0.3652671,-28.8510053 C 0.66089104,0.0857847 8.7126217,0 34.768091,0 c 33.324678,0 34.028127,0.012155 34.336797,0.5907385 0.21067,0.394955 0.315092,9.9036455 0.315092,28.6871815 0,25.135002 -0.05043,28.147048 -0.478367,28.576404 -0.425507,0.426921 -2.763626,0.479962 -21.15173,0.479962 l -20.673357,0 -10.111473,6.315231 C 11.44378,68.122885 6.5910751,71.022757 6.2212981,71.093647 5.7850247,71.177337 5.443803,71.024317 5.249452,70.657668 Z m 32.208049,-28.357629 0,-3.512294 -7.610079,0 0,7.024592 7.610079,0 0,-3.512298 z M 37.017929,34.28296 c 0.295911,-2.441077 0.661437,-3.030159 4.265051,-6.874446 3.920877,-4.182724 4.697936,-5.620945 4.697936,-8.695174 0,-4.34375 -1.730671,-6.461633 -6.026971,-7.375308 -3.022382,-0.642729 -9.013589,-0.358379 -12.617809,0.598929 l -1.141541,0.303161 -3.51e-4,5.015838 4.896801,0 c 4.778748,0 4.910774,0.01743 5.479421,0.721027 1.292662,1.599513 0.531144,3.864402 -2.44454,7.270971 -2.602344,2.979035 -3.385823,4.566271 -3.716109,7.528061 -0.151558,1.359146 -0.207457,2.649398 -0.124123,2.867128 0.110669,0.289313 1.008388,0.395917 3.335303,0.395917 l 3.183922,0 0.212927,-1.756104 z"/>
</svg>